<svg width="205" height="125" viewBox="0 0 205 125" fill="none" xmlns="http://www.w3.org/2000/svg">
<path d="M4.384 118.064C3.53067 118.064 3.104 117.829 3.104 117.36V96.56C3.104 95.92 3.424 95.6 4.064 95.6H14.144C14.5707 95.6 14.784 95.92 14.784 96.56V97.072C14.784 97.712 14.5707 98.032 14.144 98.032H5.92V105.968H13.568C13.9947 105.968 14.208 106.288 14.208 106.928V107.44C14.208 108.08 13.9947 108.4 13.568 108.4H5.92V117.36C5.92 117.829 5.49333 118.064 4.64 118.064H4.384ZM20.2858 118.064C19.4324 118.064 19.0058 117.829 19.0058 117.36V101.904C19.0058 101.435 19.4324 101.2 20.2858 101.2H20.4138C21.2671 101.2 21.6938 101.435 21.6938 101.904V117.36C21.6938 117.829 21.2671 118.064 20.4138 118.064H20.2858ZM20.3498 98.96C19.8378 98.96 19.4751 98.896 19.2618 98.768C19.0484 98.64 18.9418 98.4693 18.9418 98.256V96.336C18.9418 96.1227 19.0484 95.952 19.2618 95.824C19.4751 95.696 19.8378 95.632 20.3498 95.632C20.8618 95.632 21.2244 95.696 21.4378 95.824C21.6511 95.9307 21.7578 96.1013 21.7578 96.336V98.256C21.7578 98.4693 21.6511 98.64 21.4378 98.768C21.2244 98.896 20.8618 98.96 20.3498 98.96ZM28.5945 118.064C27.7412 118.064 27.3145 117.829 27.3145 117.36V106.128C27.3145 105.253 27.2825 104.528 27.2185 103.952C27.1545 103.376 27.0905 102.939 27.0265 102.64C26.9625 102.32 26.9305 102.139 26.9305 102.096C26.9305 101.947 26.9945 101.829 27.1225 101.744C27.2718 101.637 27.4425 101.563 27.6345 101.52C27.8265 101.456 28.0185 101.413 28.2105 101.392C28.4025 101.371 28.5518 101.36 28.6585 101.36C28.9145 101.36 29.1065 101.477 29.2345 101.712C29.3838 101.947 29.4905 102.235 29.5545 102.576C29.6398 102.896 29.7145 103.195 29.7785 103.472C30.4612 102.725 31.2398 102.139 32.1145 101.712C32.9892 101.285 33.8745 101.072 34.7705 101.072C36.4132 101.072 37.6932 101.531 38.6105 102.448C39.5278 103.365 39.9865 104.635 39.9865 106.256V117.36C39.9865 117.829 39.5598 118.064 38.7065 118.064H38.5785C37.7252 118.064 37.2985 117.829 37.2985 117.36V106.512C37.2985 105.531 37.0105 104.773 36.4345 104.24C35.8798 103.685 35.0798 103.408 34.0345 103.408C33.3092 103.408 32.5838 103.611 31.8585 104.016C31.1545 104.421 30.5358 104.965 30.0025 105.648V117.36C30.0025 117.829 29.5758 118.064 28.7225 118.064H28.5945ZM49.415 118.192C47.8577 118.192 46.5563 117.808 45.511 117.04C44.4657 116.251 43.943 115.035 43.943 113.392C43.943 112.048 44.263 110.992 44.903 110.224C45.543 109.435 46.3857 108.859 47.431 108.496C48.4763 108.112 49.6177 107.867 50.855 107.76C52.1137 107.653 53.351 107.589 54.567 107.568V106.064C54.567 105.339 54.311 104.709 53.799 104.176C53.287 103.643 52.3697 103.376 51.047 103.376C50.087 103.376 49.2443 103.493 48.519 103.728C47.815 103.941 47.2497 104.165 46.823 104.4C46.4177 104.613 46.1617 104.72 46.055 104.72C45.9057 104.72 45.7457 104.613 45.575 104.4C45.4043 104.187 45.255 103.952 45.127 103.696C44.999 103.419 44.935 103.227 44.935 103.12C44.935 102.843 45.2123 102.544 45.767 102.224C46.3217 101.904 47.0577 101.637 47.975 101.424C48.8923 101.189 49.8843 101.072 50.951 101.072C52.2737 101.072 53.4043 101.275 54.343 101.68C55.2817 102.064 55.9963 102.629 56.487 103.376C56.999 104.123 57.255 105.029 57.255 106.096V113.264C57.255 114.139 57.287 114.864 57.351 115.44C57.415 116.016 57.479 116.453 57.543 116.752C57.607 117.051 57.639 117.232 57.639 117.296C57.639 117.445 57.5643 117.573 57.415 117.68C57.287 117.765 57.127 117.84 56.935 117.904C56.743 117.947 56.551 117.979 56.359 118C56.167 118.021 56.0177 118.032 55.911 118.032C55.655 118.032 55.4523 117.915 55.303 117.68C55.175 117.424 55.0683 117.125 54.983 116.784C54.919 116.421 54.855 116.091 54.791 115.792C54.3857 116.24 53.9163 116.645 53.383 117.008C52.8497 117.371 52.2523 117.659 51.591 117.872C50.951 118.085 50.2257 118.192 49.415 118.192ZM49.543 115.856C50.7163 115.856 51.687 115.632 52.455 115.184C53.223 114.736 53.927 114.224 54.567 113.648V109.872C53.735 109.872 52.871 109.904 51.975 109.968C51.079 110.011 50.2363 110.128 49.447 110.32C48.6577 110.512 48.0177 110.843 47.527 111.312C47.0577 111.76 46.823 112.4 46.823 113.232C46.823 114.085 47.047 114.736 47.495 115.184C47.9643 115.632 48.647 115.856 49.543 115.856ZM63.8445 118.064C62.9912 118.064 62.5645 117.829 62.5645 117.36V106.128C62.5645 105.253 62.5325 104.528 62.4685 103.952C62.4045 103.376 62.3405 102.939 62.2765 102.64C62.2125 102.32 62.1805 102.139 62.1805 102.096C62.1805 101.947 62.2445 101.829 62.3725 101.744C62.5218 101.637 62.6925 101.563 62.8845 101.52C63.0765 101.456 63.2685 101.413 63.4605 101.392C63.6525 101.371 63.8018 101.36 63.9085 101.36C64.1645 101.36 64.3565 101.477 64.4845 101.712C64.6338 101.947 64.7405 102.235 64.8045 102.576C64.8898 102.896 64.9645 103.195 65.0285 103.472C65.7112 102.725 66.4898 102.139 67.3645 101.712C68.2392 101.285 69.1245 101.072 70.0205 101.072C71.6632 101.072 72.9432 101.531 73.8605 102.448C74.7778 103.365 75.2365 104.635 75.2365 106.256V117.36C75.2365 117.829 74.8098 118.064 73.9565 118.064H73.8285C72.9752 118.064 72.5485 117.829 72.5485 117.36V106.512C72.5485 105.531 72.2605 104.773 71.6845 104.24C71.1298 103.685 70.3298 103.408 69.2845 103.408C68.5592 103.408 67.8338 103.611 67.1085 104.016C66.4045 104.421 65.7858 104.965 65.2525 105.648V117.36C65.2525 117.829 64.8258 118.064 63.9725 118.064H63.8445ZM87.161 118.192C84.5797 118.192 82.617 117.531 81.273 116.208C79.9503 114.864 79.289 112.645 79.289 109.552C79.289 107.888 79.5023 106.512 79.929 105.424C80.377 104.315 80.9637 103.451 81.689 102.832C82.4357 102.192 83.257 101.744 84.153 101.488C85.049 101.211 85.9557 101.072 86.873 101.072C87.705 101.072 88.4837 101.147 89.209 101.296C89.9343 101.424 90.521 101.605 90.969 101.84C91.4383 102.053 91.673 102.288 91.673 102.544C91.673 102.715 91.609 102.939 91.481 103.216C91.3743 103.493 91.2463 103.739 91.097 103.952C90.9477 104.165 90.7983 104.272 90.649 104.272C90.6277 104.272 90.585 104.261 90.521 104.24C90.4783 104.219 90.4037 104.187 90.297 104.144C90.0197 104.016 89.5823 103.856 88.985 103.664C88.409 103.472 87.6837 103.376 86.809 103.376C85.401 103.376 84.2703 103.845 83.417 104.784C82.585 105.701 82.169 107.269 82.169 109.488C82.169 111.728 82.5423 113.36 83.289 114.384C84.0357 115.387 85.3157 115.888 87.129 115.888C88.025 115.888 88.7823 115.792 89.401 115.6C90.0197 115.387 90.4677 115.205 90.745 115.056C90.8517 115.013 90.9263 114.981 90.969 114.96C91.033 114.939 91.0757 114.928 91.097 114.928C91.2463 114.928 91.4063 115.035 91.577 115.248C91.7477 115.461 91.8863 115.696 91.993 115.952C92.121 116.208 92.185 116.411 92.185 116.56C92.185 116.752 92.057 116.944 91.801 117.136C91.545 117.328 91.1823 117.509 90.713 117.68C90.265 117.829 89.7317 117.947 89.113 118.032C88.5157 118.139 87.865 118.192 87.161 118.192ZM102.756 118.192C100.111 118.192 98.1376 117.499 96.8363 116.112C95.5563 114.725 94.9163 112.603 94.9163 109.744C94.9163 107.845 95.1936 106.256 95.7483 104.976C96.3243 103.696 97.1669 102.725 98.2763 102.064C99.3856 101.403 100.751 101.072 102.372 101.072C103.844 101.072 105.06 101.392 106.02 102.032C107.002 102.672 107.738 103.611 108.228 104.848C108.719 106.085 108.964 107.611 108.964 109.424C108.964 109.552 108.9 109.723 108.772 109.936C108.666 110.128 108.527 110.309 108.356 110.48C108.186 110.651 108.036 110.736 107.908 110.736H97.7963C97.9243 112.507 98.3829 113.808 99.1723 114.64C99.9616 115.472 101.146 115.888 102.724 115.888C103.663 115.888 104.452 115.781 105.092 115.568C105.754 115.333 106.276 115.109 106.66 114.896C107.044 114.661 107.29 114.544 107.396 114.544C107.546 114.544 107.706 114.651 107.876 114.864C108.047 115.077 108.196 115.312 108.324 115.568C108.452 115.824 108.516 116.016 108.516 116.144C108.516 116.336 108.367 116.549 108.068 116.784C107.77 117.019 107.354 117.243 106.82 117.456C106.308 117.669 105.7 117.851 104.996 118C104.314 118.128 103.567 118.192 102.756 118.192ZM97.7963 108.432H106.116C106.116 106.747 105.796 105.488 105.156 104.656C104.516 103.803 103.556 103.376 102.276 103.376C100.89 103.376 99.8229 103.803 99.0763 104.656C98.3296 105.488 97.9029 106.747 97.7963 108.432ZM122.478 118.064C121.198 118.064 120.558 117.723 120.558 117.04V96.56C120.558 95.8773 121.198 95.536 122.478 95.536H123.598C124.878 95.536 125.518 95.8773 125.518 96.56V104.464H134.158V96.56C134.158 95.8773 134.798 95.536 136.078 95.536H137.198C138.478 95.536 139.118 95.8773 139.118 96.56V117.04C139.118 117.723 138.478 118.064 137.198 118.064H136.078C134.798 118.064 134.158 117.723 134.158 117.04V108.688H125.518V117.04C125.518 117.723 124.878 118.064 123.598 118.064H122.478ZM150.683 118.256C148.144 118.256 146.213 117.509 144.891 116.016C143.568 114.523 142.907 112.389 142.907 109.616C142.907 106.821 143.568 104.688 144.891 103.216C146.213 101.744 148.144 101.008 150.683 101.008C153.221 101.008 155.141 101.744 156.443 103.216C157.765 104.688 158.427 106.821 158.427 109.616C158.427 112.389 157.765 114.523 156.443 116.016C155.141 117.509 153.221 118.256 150.683 118.256ZM150.683 114.512C151.707 114.512 152.453 114.096 152.923 113.264C153.392 112.432 153.627 111.216 153.627 109.616C153.627 108.016 153.392 106.811 152.923 106C152.453 105.168 151.707 104.752 150.683 104.752C149.659 104.752 148.901 105.168 148.411 106C147.941 106.811 147.707 108.016 147.707 109.616C147.707 111.216 147.941 112.432 148.411 113.264C148.901 114.096 149.659 114.512 150.683 114.512ZM163.685 118.064C162.405 118.064 161.765 117.723 161.765 117.04V106.896C161.765 105.829 161.733 105.008 161.669 104.432C161.605 103.856 161.541 103.429 161.477 103.152C161.413 102.853 161.381 102.597 161.381 102.384C161.381 102.192 161.52 102.032 161.797 101.904C162.096 101.776 162.448 101.669 162.853 101.584C163.28 101.499 163.685 101.445 164.069 101.424C164.475 101.381 164.773 101.36 164.965 101.36C165.307 101.36 165.552 101.477 165.701 101.712C165.872 101.947 165.989 102.224 166.053 102.544C166.117 102.864 166.181 103.163 166.245 103.44C166.715 102.821 167.355 102.267 168.165 101.776C168.997 101.264 169.936 101.008 170.981 101.008C171.728 101.008 172.368 101.093 172.901 101.264C173.456 101.435 173.925 101.701 174.309 102.064C174.693 102.427 174.992 102.885 175.205 103.44C175.696 102.821 176.368 102.267 177.221 101.776C178.096 101.264 179.067 101.008 180.133 101.008C180.944 101.008 181.637 101.115 182.213 101.328C182.811 101.52 183.291 101.829 183.653 102.256C184.037 102.683 184.325 103.227 184.517 103.888C184.709 104.528 184.805 105.296 184.805 106.192V117.04C184.805 117.723 184.165 118.064 182.885 118.064H181.989C180.709 118.064 180.069 117.723 180.069 117.04V106.896C180.069 106.277 179.931 105.797 179.653 105.456C179.376 105.093 178.885 104.912 178.181 104.912C177.712 104.912 177.307 105.019 176.965 105.232C176.624 105.445 176.347 105.701 176.133 106C175.92 106.299 175.749 106.565 175.621 106.8C175.515 107.035 175.44 107.173 175.397 107.216V104.624C175.483 104.901 175.547 105.179 175.589 105.456C175.632 105.733 175.653 106.011 175.653 106.288V117.04C175.653 117.723 175.013 118.064 173.733 118.064H172.837C171.557 118.064 170.917 117.723 170.917 117.04V106.896C170.917 106.277 170.779 105.797 170.501 105.456C170.224 105.093 169.733 104.912 169.029 104.912C168.709 104.912 168.411 104.976 168.133 105.104C167.856 105.211 167.611 105.36 167.397 105.552C167.205 105.744 167.035 105.947 166.885 106.16C166.736 106.373 166.608 106.576 166.501 106.768V117.04C166.501 117.723 165.861 118.064 164.581 118.064H163.685ZM196.602 118.256C193.701 118.256 191.578 117.488 190.234 115.952C188.912 114.395 188.25 112.325 188.25 109.744C188.25 107.632 188.581 105.936 189.242 104.656C189.904 103.376 190.821 102.448 191.994 101.872C193.168 101.296 194.512 101.008 196.026 101.008C197.712 101.008 199.056 101.392 200.058 102.16C201.061 102.907 201.786 103.909 202.234 105.168C202.704 106.405 202.938 107.771 202.938 109.264C202.938 109.435 202.832 109.68 202.618 110C202.405 110.299 202.17 110.565 201.914 110.8C201.658 111.035 201.456 111.152 201.306 111.152H193.146C193.253 112.432 193.626 113.317 194.266 113.808C194.928 114.277 195.781 114.512 196.826 114.512C197.509 114.512 198.106 114.427 198.618 114.256C199.152 114.085 199.589 113.925 199.93 113.776C200.293 113.605 200.549 113.52 200.698 113.52C200.933 113.52 201.178 113.68 201.434 114C201.69 114.32 201.904 114.672 202.074 115.056C202.266 115.44 202.362 115.739 202.362 115.952C202.362 116.357 202.149 116.709 201.722 117.008C201.317 117.285 200.794 117.52 200.154 117.712C199.536 117.904 198.896 118.043 198.234 118.128C197.594 118.213 197.05 118.256 196.602 118.256ZM193.146 107.984H198.33C198.33 107.045 198.149 106.277 197.786 105.68C197.424 105.061 196.837 104.752 196.026 104.752C195.365 104.752 194.768 104.987 194.234 105.456C193.701 105.904 193.338 106.747 193.146 107.984Z" fill="white"/>
<path d="M132.333 29.3334L110.333 10.0467C108.317 8.24285 105.706 7.24561 103 7.24561C100.294 7.24561 97.6834 8.24285 95.6666 10.0467L73.6666 29.3334C72.502 30.375 71.5726 31.6527 70.9404 33.0816C70.3081 34.5104 69.9876 36.0576 70 37.62V69.6667C70 72.5841 71.1589 75.382 73.2218 77.4449C75.2847 79.5078 78.0826 80.6667 81 80.6667H125C127.917 80.6667 130.715 79.5078 132.778 77.4449C134.841 75.382 136 72.5841 136 69.6667V37.5834C136.007 36.0271 135.684 34.487 135.052 33.0649C134.42 31.6427 133.493 30.3709 132.333 29.3334ZM110.333 73.3334H95.6666V55C95.6666 54.0276 96.053 53.0949 96.7406 52.4073C97.4282 51.7197 98.3609 51.3334 99.3333 51.3334H106.667C107.639 51.3334 108.572 51.7197 109.259 52.4073C109.947 53.0949 110.333 54.0276 110.333 55V73.3334ZM128.667 69.6667C128.667 70.6391 128.28 71.5718 127.593 72.2594C126.905 72.9471 125.972 73.3334 125 73.3334H117.667V55C117.667 52.0826 116.508 49.2847 114.445 47.2218C112.382 45.1589 109.584 44 106.667 44H99.3333C96.4159 44 93.618 45.1589 91.5551 47.2218C89.4922 49.2847 88.3333 52.0826 88.3333 55V73.3334H81C80.0275 73.3334 79.0949 72.9471 78.4073 72.2594C77.7196 71.5718 77.3333 70.6391 77.3333 69.6667V37.5834C77.334 37.0627 77.4455 36.5482 77.6604 36.0741C77.8754 35.5999 78.1889 35.177 78.58 34.8334L100.58 15.5834C101.249 14.9955 102.109 14.6713 103 14.6713C103.891 14.6713 104.751 14.9955 105.42 15.5834L127.42 34.8334C127.811 35.177 128.125 35.5999 128.34 36.0741C128.554 36.5482 128.666 37.0627 128.667 37.5834V69.6667Z" fill="white"/>
</svg>
